<svg width="256" height="256" viewBox="0 0 256 256" fill="none" xmlns="http://www.w3.org/2000/svg">
<g clip-path="url(#clip0_756_3)">
<mask id="mask0_756_3" style="mask-type:alpha" maskUnits="userSpaceOnUse" x="128" y="0" width="128" height="256">
<rect x="128" width="128" height="256" fill="#D9D9D9"/>
</mask>
<g mask="url(#mask0_756_3)">
<path d="M220.423 33.8694C196.653 -0.151339 149.708 -10.2352 115.764 11.3914L56.1505 49.3858C48.0973 54.4522 41.1898 61.1432 35.8696 69.0311C30.5494 76.9189 26.9335 85.83 25.253 95.1948C22.4093 110.969 24.9087 127.242 32.3556 141.436C27.2528 149.176 23.7725 157.871 22.125 166.995C20.4267 176.548 20.6532 186.345 22.7911 195.809C24.929 205.274 28.9353 214.217 34.5751 222.113C58.3499 256.137 105.295 266.216 139.234 244.591L198.847 206.596C206.901 201.53 213.809 194.84 219.129 186.952C224.45 179.064 228.065 170.152 229.745 160.787C232.588 145.013 230.091 128.741 222.648 114.545C227.749 106.805 231.228 98.1102 232.874 88.9872C234.573 79.4338 234.347 69.6372 232.209 60.1723C230.071 50.7073 226.064 41.7648 220.423 33.8694Z" fill="#FF3E00"/>
<path d="M109.94 225.314C100.559 227.753 90.6548 227.255 81.5658 223.886C72.4769 220.517 64.6408 214.439 59.1159 206.475C55.7237 201.727 53.3138 196.349 52.0279 190.657C50.7419 184.965 50.6056 179.074 51.627 173.329C51.9729 171.442 52.4489 169.582 53.0516 167.762L54.1743 164.338L57.2285 166.582C64.2819 171.764 72.1684 175.705 80.548 178.233L82.7636 178.905L82.5595 181.116C82.2888 184.262 83.1406 187.402 84.9639 189.98C86.6266 192.379 88.9855 194.21 91.722 195.226C94.4586 196.242 97.4409 196.393 100.266 195.66C101.562 195.313 102.797 194.771 103.928 194.05L163.543 156.06C165.002 155.142 166.253 153.929 167.217 152.501C168.182 151.072 168.838 149.458 169.144 147.761C169.45 146.03 169.408 144.254 169.02 142.539C168.633 140.824 167.908 139.203 166.887 137.771C165.223 135.371 162.863 133.54 160.126 132.523C157.389 131.507 154.405 131.355 151.579 132.088C150.285 132.434 149.052 132.977 147.922 133.696L125.173 148.198C121.433 150.576 117.35 152.369 113.068 153.514C103.687 155.953 93.7828 155.454 84.6939 152.085C75.6051 148.716 67.7692 142.639 62.2444 134.675C58.852 129.927 56.4421 124.549 55.1561 118.857C53.8701 113.165 53.7339 107.274 54.7555 101.529C55.7658 95.8972 57.9403 90.5388 61.14 85.7959C64.3396 81.053 68.4938 77.0302 73.3371 73.9846L132.947 35.9913C136.689 33.609 140.774 31.8141 145.06 30.669C154.442 28.2299 164.345 28.7285 173.434 32.0974C182.523 35.4664 190.359 41.5435 195.884 49.5079C199.276 54.256 201.686 59.6337 202.972 65.3256C204.258 71.0175 204.394 76.9089 203.372 82.6542C203.025 84.5401 202.549 86.4001 201.948 88.2211L200.825 91.6444L197.773 89.4046C190.72 84.2189 182.832 80.2768 174.451 77.7482L172.236 77.0758L172.44 74.8645C172.708 71.719 171.857 68.5798 170.036 66.0011C168.373 63.602 166.014 61.771 163.277 60.7553C160.541 59.7396 157.559 59.5882 154.733 60.3215C153.438 60.6678 152.203 61.2105 151.072 61.9308L91.4565 99.9225C89.9981 100.84 88.7471 102.052 87.7834 103.481C86.8197 104.909 86.1646 106.523 85.8599 108.219C85.5521 109.951 85.5928 111.726 85.9796 113.442C86.3664 115.158 87.0915 116.779 88.1125 118.211C89.7762 120.61 92.136 122.442 94.8735 123.458C97.6109 124.474 100.594 124.626 103.421 123.894C104.716 123.547 105.951 123.004 107.082 122.284L129.828 107.788C133.567 105.407 137.649 103.612 141.932 102.468C151.313 100.029 161.217 100.527 170.306 103.896C179.395 107.265 187.231 113.343 192.755 121.307C196.148 126.055 198.558 131.433 199.844 137.125C201.13 142.816 201.266 148.708 200.244 154.453C199.233 160.085 197.058 165.444 193.859 170.187C190.659 174.93 186.505 178.954 181.663 182.001L122.053 219.991C118.31 222.374 114.226 224.169 109.94 225.314Z" fill="white"/>
</g>
<mask id="mask1_756_3" style="mask-type:alpha" maskUnits="userSpaceOnUse" x="0" y="0" width="128" height="256">
<rect width="128" height="256" fill="#D9D9D9"/>
</mask>
<g mask="url(#mask1_756_3)">
<path d="M158.889 197.985C194.473 194.032 228.022 175.07 246.494 143.424C237.746 221.7 152.153 271.174 82.2875 240.798C75.8496 238.007 70.3081 233.363 66.5053 227.392C50.8046 202.739 45.6435 171.368 53.0592 142.899C74.2469 179.466 117.329 201.881 158.889 197.985Z" fill="#F3B01C"/>
<path d="M51.7601 119.93C37.3359 153.265 36.7112 192.29 54.3949 224.407C-7.83758 177.587 -7.15845 77.3933 53.6343 31.042C59.2573 26.7578 65.9396 24.2151 72.9478 23.828C101.769 22.3078 131.051 33.4466 151.587 54.2038C109.864 54.6185 69.2265 81.3458 51.7601 119.93Z" fill="#8D2676"/>
<path d="M171.71 64.4603C150.658 35.1072 117.708 15.1239 81.6074 14.5159C151.391 -17.159 237.228 34.1951 246.574 110.121C247.444 117.169 246.302 124.355 243.177 130.712C230.139 157.19 205.964 177.727 177.714 185.327C198.412 146.936 195.858 100.032 171.71 64.4603Z" fill="#EE342F"/>
</g>
</g>
<defs>
<clipPath id="clip0_756_3">
<rect width="256" height="256" fill="white"/>
</clipPath>
</defs>
</svg>
